HIERARCHY
ROOT root
{
	OFFSET	0	13.1	24.9
	CHANNELS 6  Xposition Yposition Zposition Xrotation Yrotation Zrotation
	JOINT spine_1
	{
		OFFSET	0	9.99999	0
		CHANNELS 3  Xrotation Yrotation Zrotation
		JOINT spine_2
		{
			OFFSET	0	112	-10
			CHANNELS 3  Xrotation Yrotation Zrotation
			JOINT spine_3
			{
				OFFSET	0	206.5	19.3
				CHANNELS 3  Xrotation Yrotation Zrotation
				JOINT spine_4
				{
					OFFSET	0	110.4	14.6
					CHANNELS 3  Xrotation Yrotation Zrotation
					JOINT neck_1
					{
						OFFSET	0	71.8	-50.3
						CHANNELS 3  Xrotation Yrotation Zrotation
						JOINT neck_2
						{
							OFFSET	0	86.2	-25.8
							CHANNELS 3  Xrotation Yrotation Zrotation
							JOINT head_ee
							{
								OFFSET	0	179.8	-8.7
								CHANNELS 3  Xrotation Yrotation Zrotation
								End Site
								{
									OFFSET	1	0	0
								}
							}
						}
					}
					JOINT left_clavicle
					{
						OFFSET	-43.2	22.4	-70.8
						CHANNELS 3  Xrotation Yrotation Zrotation
						JOINT left_shoulder
						{
							OFFSET	-93.9	-5.79999	48.7
							CHANNELS 3  Xrotation Yrotation Zrotation
							JOINT left_elbow
							{
								OFFSET	-291.4	-30.8	15.2
								CHANNELS 3  Xrotation Yrotation Zrotation
								JOINT left_lowarm_twist
								{
									OFFSET	-110.7	-3.89999	13.6
									CHANNELS 3  Xrotation Yrotation Zrotation
									JOINT left_hand
									{
										OFFSET	-110.7	-3.89999	13.6
										CHANNELS 3  Xrotation Yrotation Zrotation
										JOINT left_ee
										{
											OFFSET	-80.8	-5.10001	12.1
											CHANNELS 3  Xrotation Yrotation Zrotation
											End Site
											{
												OFFSET	1	0	0
											}
										}
									}
								}
							}
						}
					}
					JOINT right_clavicle
					{
						OFFSET	43.2	22.4	-70.8
						CHANNELS 3  Xrotation Yrotation Zrotation
						JOINT right_shoulder
						{
							OFFSET	93.9	-5.79999	48.7
							CHANNELS 3  Xrotation Yrotation Zrotation
							JOINT right_elbow
							{
								OFFSET	291.4	-30.8	15.2
								CHANNELS 3  Xrotation Yrotation Zrotation
								JOINT right_lowarm_twist
								{
									OFFSET	110.7	-3.89999	13.6
									CHANNELS 3  Xrotation Yrotation Zrotation
									JOINT right_hand
									{
										OFFSET	110.7	-3.89999	13.6
										CHANNELS 3  Xrotation Yrotation Zrotation
										JOINT right_ee
										{
											OFFSET	80.8	-5.10001	12.1
											CHANNELS 3  Xrotation Yrotation Zrotation
											End Site
											{
												OFFSET	1	0	0
											}
										}
									}
								}
							}
						}
					}
				}
			}
		}
	}
	JOINT left_hip
	{
		OFFSET	-82.8	-127.5	0.300001
		CHANNELS 3  Xrotation Yrotation Zrotation
		JOINT left_knee
		{
			OFFSET	-28.2	-396.7	2.2
			CHANNELS 3  Xrotation Yrotation Zrotation
			JOINT left_ankle
			{
				OFFSET	-11.7	-411.3	35.4
				CHANNELS 3  Xrotation Yrotation Zrotation
				JOINT left_toes
				{
					OFFSET	0	-60	-88.6
					CHANNELS 3  Xrotation Yrotation Zrotation
					JOINT left_foot_ee
					{
						OFFSET	-22.5	-16.5	-42.2
						CHANNELS 3  Xrotation Yrotation Zrotation
						End Site
						{
							OFFSET	1	0	0
						}
					}
				}
			}
		}
	}
	JOINT right_hip
	{
		OFFSET	82.8	-127.5	0.300001
		CHANNELS 3  Xrotation Yrotation Zrotation
		JOINT right_knee
		{
			OFFSET	28.2	-396.7	2.2
			CHANNELS 3  Xrotation Yrotation Zrotation
			JOINT right_ankle
			{
				OFFSET	11.7	-411.3	35.4
				CHANNELS 3  Xrotation Yrotation Zrotation
				JOINT right_toes
				{
					OFFSET	0	-60	-88.6
					CHANNELS 3  Xrotation Yrotation Zrotation
					JOINT right_foot_ee
					{
						OFFSET	22.5	-16.5	-42.2
						CHANNELS 3  Xrotation Yrotation Zrotation
						End Site
						{
							OFFSET	1	0	0
						}
					}
				}
			}
		}
	}
}
MOTION
Frames: 16
Frame Time: 0.02
2800.94 716.97 -1473.77 16.8139296665 64.9078488277 -21.7434921363 -3.1981 0.59174 3.95257 -3.18948 0.339233 3.98215 -3.15397 -0.723516 3.93062 -3.17551 -0.0941859 3.99544 -17.421 18.4623 -5.20402 -19.4001 38.2609 2.94704 -0.0 0.0 -0.0 -1.10155 8.94174 -0.866686 13.3381 -20.5633 57.0483 7.19224 -74.283 5.4507 3.16019 0.100576 -0.391063 -0.168296 7.35553 1.96926 -0.0 0.0 -0.0 13.9536 26.265 -27.8616 -17.4219 26.5772 -60.1209 0.327847 9.22482 -0.0264494 39.0614 0.301345 4.8854 1.41838 -29.4196 -19.4191 0.0 0.0 0.0 -17.2089 0.850424 16.4186 -18.3575 0.31157 2.78786 38.0363 19.5478 -4.8331 -25.8506 0.0 0.0 -0.0 0.0 -0.0 24.7907 15.8173 -6.44877 -3.78748 -0.137308 -0.564939 2.37242 -18.0239 0.350145 -10.3507 0.0 0.0 0.0 0.0 0.0 
2732.9654411 722.783 -1485.77424269 20.0342285699 69.4287705399 -25.4733709136 -3.2436 0.568286 4.10604 -3.23428 0.306085 4.13381 -3.19939 -0.798918 4.06752 -3.22244 -0.147079 4.1425 -14.1128 17.4139 -8.74528 -15.2558 38.4507 -2.22663 -0.0 0.0 -0.0 -1.50979 8.95248 -1.58062 7.22138 -22.3652 58.9747 4.54754 -66.0414 2.95644 3.88185 0.120505 -0.481092 0.0885075 6.16019 3.15039 -0.0 0.0 -0.0 13.3854 26.5256 -26.5058 -12.3918 29.6432 -60.6195 0.385531 10.8124 -0.0364856 38.4063 0.268977 4.80814 1.39571 -29.0137 -19.1846 0.0 0.0 0.0 -20.6352 -0.166825 15.8929 -18.2119 0.312634 2.76554 37.0912 18.3131 -4.71676 -27.094 0.0 0.0 -0.0 0.0 -0.0 24.849 16.2327 -5.94367 -13.9782 -0.318762 -2.11615 -1.53044 -14.6685 -0.226076 -10.7778 0.0 0.0 0.0 0.0 0.0 
2733.32222524 722.783 -1487.64368143 18.6918156988 67.9382194552 -24.0325064308 -3.2436 0.568286 4.10604 -3.23428 0.306085 4.13381 -3.19939 -0.798918 4.06752 -3.22244 -0.147079 4.1425 -14.1128 17.4139 -8.74528 -15.2558 38.4507 -2.22663 -0.0 0.0 -0.0 -1.50979 8.95248 -1.58062 7.22138 -22.3652 58.9747 4.54754 -66.0414 2.95644 3.88185 0.120505 -0.481092 0.0885075 6.16019 3.15039 -0.0 0.0 -0.0 13.3854 26.5256 -26.5058 -12.3918 29.6432 -60.6195 0.385531 10.8124 -0.0364856 38.4063 0.268977 4.80814 1.39571 -29.0137 -19.1846 0.0 0.0 0.0 -20.6352 -0.166825 15.8929 -18.2119 0.312634 2.76554 37.0912 18.3131 -4.71676 -27.094 0.0 0.0 -0.0 0.0 -0.0 24.849 16.2327 -5.94367 -13.9782 -0.318762 -2.11615 -1.53044 -14.6685 -0.226076 -10.7778 0.0 0.0 0.0 0.0 0.0 
2733.48999992 722.783 -1488.43765113 18.1745756171 67.2991759586 -23.4731379511 -3.2436 0.568286 4.10604 -3.23428 0.306085 4.13381 -3.19939 -0.798918 4.06752 -3.22244 -0.147079 4.1425 -14.1128 17.4139 -8.74528 -15.2558 38.4507 -2.22663 -0.0 0.0 -0.0 -1.50979 8.95248 -1.58062 7.22138 -22.3652 58.9747 4.54754 -66.0414 2.95644 3.88185 0.120505 -0.481092 0.0885075 6.16019 3.15039 -0.0 0.0 -0.0 13.3854 26.5256 -26.5058 -12.3918 29.6432 -60.6195 0.385531 10.8124 -0.0364856 38.4063 0.268977 4.80814 1.39571 -29.0137 -19.1846 0.0 0.0 0.0 -20.6352 -0.166825 15.8929 -18.2119 0.312634 2.76554 37.0912 18.3131 -4.71676 -27.094 0.0 0.0 -0.0 0.0 -0.0 24.849 16.2327 -5.94367 -13.9782 -0.318762 -2.11615 -1.53044 -14.6685 -0.226076 -10.7778 0.0 0.0 0.0 0.0 0.0 
2683.15896676 729.806 -1490.09703922 20.7620075899 70.3334859122 -27.1763980166 -2.78636 0.451109 4.25886 -2.77629 0.179446 4.27889 -2.75083 -0.927109 4.18127 -2.77513 -0.255753 4.27501 -11.9678 16.024 -12.1769 -12.3782 38.1032 -6.99328 -0.0 0.0 -0.0 -1.26553 11.5525 -0.770838 3.70783 -20.812 61.2121 3.4022 -59.3032 1.93716 1.82642 0.0607622 -0.225351 0.0601634 4.46494 2.26549 -0.0 0.0 -0.0 13.4182 25.6238 -26.6906 -12.7242 30.331 -60.7016 0.568237 15.7214 -0.0784528 37.371 0.219629 4.68529 1.33522 -28.5619 -18.7171 0.0 0.0 0.0 -19.6199 0.415312 14.9056 -18.3913 0.311315 2.79304 35.5561 14.9229 -4.51247 -27.1258 0.0 0.0 -0.0 0.0 -0.0 20.0253 16.9584 -3.59115 -11.755 -0.302768 -1.77543 -0.973279 -7.53195 -0.142773 -12.4325 0.0 0.0 0.0 0.0 0.0 
2683.48704119 729.806 -1492.31040092 19.7459906188 69.3219275062 -26.0940317572 -2.78636 0.451109 4.25886 -2.77629 0.179446 4.27889 -2.75083 -0.927109 4.18127 -2.77513 -0.255753 4.27501 -11.9678 16.024 -12.1769 -12.3782 38.1032 -6.99328 -0.0 0.0 -0.0 -1.26553 11.5525 -0.770838 3.70783 -20.812 61.2121 3.4022 -59.3032 1.93716 1.82642 0.0607622 -0.225351 0.0601634 4.46494 2.26549 -0.0 0.0 -0.0 13.4182 25.6238 -26.6906 -12.7242 30.331 -60.7016 0.568237 15.7214 -0.0784528 37.371 0.219629 4.68529 1.33522 -28.5619 -18.7171 0.0 0.0 0.0 -19.6199 0.415312 14.9056 -18.3913 0.311315 2.79304 35.5561 14.9229 -4.51247 -27.1258 0.0 0.0 -0.0 0.0 -0.0 20.0253 16.9584 -3.59115 -11.755 -0.302768 -1.77543 -0.973279 -7.53195 -0.142773 -12.4325 0.0 0.0 0.0 0.0 0.0 
2683.57729105 729.806 -1492.87336483 19.5031840315 69.0631554752 -25.834285014 -2.78636 0.451109 4.25886 -2.77629 0.179446 4.27889 -2.75083 -0.927109 4.18127 -2.77513 -0.255753 4.27501 -11.9678 16.024 -12.1769 -12.3782 38.1032 -6.99328 -0.0 0.0 -0.0 -1.26553 11.5525 -0.770838 3.70783 -20.812 61.2121 3.4022 -59.3032 1.93716 1.82642 0.0607622 -0.225351 0.0601634 4.46494 2.26549 -0.0 0.0 -0.0 13.4182 25.6238 -26.6906 -12.7242 30.331 -60.7016 0.568237 15.7214 -0.0784528 37.371 0.219629 4.68529 1.33522 -28.5619 -18.7171 0.0 0.0 0.0 -19.6199 0.415312 14.9056 -18.3913 0.311315 2.79304 35.5561 14.9229 -4.51247 -27.1258 0.0 0.0 -0.0 0.0 -0.0 20.0253 16.9584 -3.59115 -11.755 -0.302768 -1.77543 -0.973279 -7.53195 -0.142773 -12.4325 0.0 0.0 0.0 0.0 0.0 
2662.80840568 737.55 -1491.04149821 20.5437698472 70.6755606702 -27.1432463972 -2.64215 0.468782 4.37354 -2.63153 0.189807 4.39445 -2.60463 -0.935903 4.29801 -2.63031 -0.246054 4.39166 -11.0697 15.4846 -13.4636 -11.166 38.0059 -8.8364 -0.0 0.0 -0.0 -1.09461 12.518 -0.343836 2.3132 -20.2755 62.1352 3.05283 -56.5135 1.64109 1.23942 0.0420179 -0.152718 0.0458602 4.12231 2.02921 -0.0 0.0 -0.0 13.3025 25.3165 -26.457 -12.6616 30.5419 -60.7638 0.617126 16.9988 -0.0922245 37.0843 0.206361 4.65113 1.3181 -28.4679 -18.5932 0.0 0.0 0.0 -18.8499 0.584624 14.5329 -18.7284 0.308603 2.84468 34.805 13.7839 -4.42424 -27.28 0.0 0.0 -0.0 0.0 -0.0 17.7294 17.1513 -2.62899 -10.8355 -0.292289 -1.63473 -0.839061 -5.34966 -0.12321 -12.9289 0.0 0.0 0.0 0.0 0.0 
2662.95977503 737.55 -1492.21178724 20.0691577667 70.2200532181 -26.6395964528 -2.64215 0.468782 4.37354 -2.63153 0.189807 4.39445 -2.60463 -0.935903 4.29801 -2.63031 -0.246054 4.39166 -11.0697 15.4846 -13.4636 -11.166 38.0059 -8.8364 -0.0 0.0 -0.0 -1.09461 12.518 -0.343836 2.3132 -20.2755 62.1352 3.05283 -56.5135 1.64109 1.23942 0.0420179 -0.152718 0.0458602 4.12231 2.02921 -0.0 0.0 -0.0 13.3025 25.3165 -26.457 -12.6616 30.5419 -60.7638 0.617126 16.9988 -0.0922245 37.0843 0.206361 4.65113 1.3181 -28.4679 -18.5932 0.0 0.0 0.0 -18.8499 0.584624 14.5329 -18.7284 0.308603 2.84468 34.805 13.7839 -4.42424 -27.28 0.0 0.0 -0.0 0.0 -0.0 17.7294 17.1513 -2.62899 -10.8355 -0.292289 -1.63473 -0.839061 -5.34966 -0.12321 -12.9289 0.0 0.0 0.0 0.0 0.0 
2642.98736464 743.751 -1492.13412216 19.983246363 71.5707761545 -26.5906121898 -2.52512 0.492056 4.37169 -2.51451 0.213151 4.39408 -2.48605 -0.904249 4.30548 -2.51185 -0.213617 4.39406 -10.3426 15.1715 -14.48 -10.1857 38.1659 -10.2733 -0.0 0.0 -0.0 -0.984916 14.0235 0.0501964 0.628305 -19.7557 62.4957 2.8265 -54.4553 1.45457 0.813601 0.0279552 -0.100149 0.0360778 3.69005 1.7851 -0.0 0.0 -0.0 13.1945 25.1611 -26.2239 -12.3404 30.8171 -60.6153 0.699289 19.1065 -0.11769 36.9782 0.201491 4.63846 1.35965 -28.2633 -18.7795 0.0 0.0 0.0 -18.7978 0.765984 13.9482 -19.6029 0.300151 2.9786 34.3406 12.4778 -4.3647 -27.3965 0.0 0.0 -0.0 0.0 -0.0 16.0036 17.2796 -1.80646 -10.5796 -0.288971 -1.5956 -1.32535 -1.70155 -0.195912 -13.4922 0.0 0.0 0.0 0.0 0.0 
2614.65706101 744.851 -1492.15677349 22.3802982203 73.1452927414 -29.385053862 -2.53518 0.615766 4.43557 -2.5243 0.332559 4.46568 -2.48545 -0.806485 4.40494 -2.5125 -0.101413 4.47687 -9.92031 14.9139 -14.4403 -9.66536 37.7064 -10.4867 -0.0 0.0 -0.0 -1.1795 16.7779 0.13352 -0.532654 -19.0675 63.2117 2.68708 -53.0746 1.3421 0.337353 0.011764 -0.0414786 0.174393 1.96562 1.98449 -0.0 0.0 -0.0 12.9404 24.085 -25.7505 -13.6917 30.5389 -61.1786 0.911161 24.2923 -0.196108 37.438 0.222756 4.69327 1.46917 -28.248 -19.4127 0.0 0.0 0.0 -18.1543 2.25997 13.4731 -22.5274 0.257062 3.42523 34.3002 11.2696 -4.35071 -27.4394 0.0 0.0 -0.0 0.0 -0.0 14.0165 16.7836 -1.06953 -10.4956 -0.287844 -1.58277 -0.161098 0.998411 -0.0239067 -12.7134 0.0 0.0 0.0 0.0 0.0 
2602.68908968 745.02 -1497.05689241 22.9710449072 72.9432237349 -29.9882038003 -2.49159 0.76472 4.51418 -2.48039 0.476227 4.55358 -2.42878 -0.68484 4.52697 -2.45737 0.0379264 4.57821 -10.4918 14.7943 -14.0295 -10.3801 37.1471 -9.86162 -0.0 0.0 -0.0 -1.57548 18.0325 -0.28771 -1.56279 -18.3635 63.2397 2.39757 -49.896 1.11548 0.0714528 0.00251222 -0.00877959 0.207811 2.81994 2.56043 -0.0 0.0 -0.0 12.8329 24.0757 -25.5026 -14.4703 31.1972 -61.3796 1.12205 29.0658 -0.290878 37.3894 0.220489 4.68749 1.70066 -28.2275 -20.7658 0.0 0.0 0.0 -19.014 3.13383 12.9852 -25.8036 0.181791 3.92228 34.2144 10.1683 -4.33481 -26.8628 0.0 0.0 -0.0 0.0 -0.0 12.71 17.1293 -1.33111 -9.7642 -0.277235 -1.47104 -0.362713 2.50398 -0.0541078 -12.6373 0.0 0.0 0.0 0.0 0.0 
2603.65902282 745.02 -1504.19891456 20.6094048584 71.0216867191 -27.505167518 -2.49159 0.76472 4.51418 -2.48039 0.476227 4.55358 -2.42878 -0.68484 4.52697 -2.45737 0.0379264 4.57821 -10.4918 14.7943 -14.0295 -10.3801 37.1471 -9.86162 -0.0 0.0 -0.0 -1.57548 18.0325 -0.28771 -1.56279 -18.3635 63.2397 2.39757 -49.896 1.11548 0.0714528 0.00251222 -0.00877959 0.207811 2.81994 2.56043 -0.0 0.0 -0.0 12.8329 24.0757 -25.5026 -14.4703 31.1972 -61.3796 1.12205 29.0658 -0.290878 37.3894 0.220489 4.68749 1.70066 -28.2275 -20.7658 0.0 0.0 0.0 -19.014 3.13383 12.9852 -25.8036 0.181791 3.92228 34.2144 10.1683 -4.33481 -26.8628 0.0 0.0 -0.0 0.0 -0.0 12.71 17.1293 -1.33111 -9.7642 -0.277235 -1.47104 -0.362713 2.50398 -0.0541078 -12.6373 0.0 0.0 0.0 0.0 0.0 
2580.26817376 755.806 -1511.43015937 22.6429065724 70.7740601319 -28.9616795264 -2.66886 0.83064 4.55475 -2.65748 0.539441 4.59824 -2.59942 -0.648415 4.58418 -2.62873 0.082903 4.62897 -9.81351 15.2648 -14.0561 -9.58789 38.1156 -10.0406 -0.0 0.0 -0.0 -2.61596 20.8694 -1.35091 -3.36314 -17.8818 63.497 2.3579 -49.4247 1.08525 0.32067 0.0111882 -0.0394256 0.60304 3.2276 5.34915 -0.0 0.0 -0.0 12.7261 22.5629 -25.4013 -13.1494 30.3718 -61.4716 1.29731 32.7253 -0.380917 37.2071 0.212023 4.66577 1.50925 -27.9917 -19.5808 0.0 0.0 0.0 -16.8319 5.01363 11.1955 -29.0907 0.077819 4.41598 29.3028 12.4629 -3.83574 -28.971 0.0 0.0 -0.0 0.0 -0.0 9.19915 16.2086 -1.86587 -7.98245 -0.245427 -1.19949 -0.0677953 4.88835 -0.0101966 -13.0513 0.0 0.0 0.0 0.0 0.0 
2553.0096772 747.855 -1513.62664231 27.2736919504 73.346824487 -33.1710462946 -2.51464 0.863369 4.57213 -2.50319 0.571002 4.61767 -2.44268 -0.610108 4.61268 -2.47234 0.125219 4.65108 -11.0389 15.5199 -13.9116 -11.0987 38.3659 -9.29037 -0.0 0.0 -0.0 -3.49512 22.7179 -2.23592 -4.32464 -16.4591 63.1927 2.22843 -47.8208 0.98809 0.943344 0.0322814 -0.116155 0.836021 2.7509 6.7079 -0.0 0.0 -0.0 12.6564 21.6455 -25.32 -11.6299 30.625 -61.3701 1.57341 37.9308 -0.540734 37.7048 0.235297 4.725 1.6938 -27.9259 -20.651 0.0 0.0 0.0 -16.2015 7.13417 8.22099 -32.9011 -0.0779417 4.97986 25.2313 12.5922 -3.37563 -30.9721 0.0 0.0 -0.0 0.0 -0.0 5.42734 15.224 -2.44047 -4.24211 -0.151268 -0.633313 -0.421261 9.09197 -0.0647126 -12.6734 0.0 0.0 0.0 0.0 0.0 
2532.21395604 748.887 -1513.02315018 27.8144981529 73.5900888729 -33.4319229739 -2.43311 0.939377 4.59436 -2.4216 0.645447 4.64467 -2.35466 -0.537467 4.65837 -2.38487 0.204147 4.68477 -11.4609 15.6131 -13.7039 -11.6322 38.3586 -8.87017 -0.0 0.0 -0.0 -3.73232 23.0819 -2.4884 -4.71248 -16.1318 63.2228 2.02163 -45.0365 0.838214 1.55731 0.0522614 -0.192029 0.921294 3.13367 7.43027 -0.0 0.0 -0.0 12.5842 21.1135 -25.1964 -10.9553 30.6364 -61.0079 1.64668 39.2017 -0.58642 37.7435 0.237126 4.72959 1.61507 -27.818 -20.1587 0.0 0.0 0.0 -14.7266 7.95752 6.94392 -33.6754 -0.114169 5.09315 23.62 14.5043 -3.198 -31.6752 0.0 0.0 -0.0 0.0 -0.0 3.75056 14.7492 -2.80411 -2.99921 -0.111817 -0.446649 -0.270497 9.62342 -0.0416604 -12.6841 0.0 0.0 0.0 0.0 0.0 
